<svg fill="#000000" xmlns="http://www.w3.org/2000/svg"  viewBox="0 0 32 32" width="32px" height="32px"><path d="M 18 2.8671875 L 0 5.1171875 L 0 26.882812 L 18 29.132812 L 18 28 L 18 26.888672 C 18.324816 26.95515 18.657045 27 19 27 L 21 27 C 22.900869 27 24.508425 25.886994 25.353516 24.314453 C 25.842791 24.661448 26.360511 25 27 25 L 28.630859 25 C 30.479712 25 32 23.479712 32 21.630859 L 32 17 L 26 17 L 26 16 L 18 16 L 18 13.488281 C 18.575511 13.801729 19.24732 14 20 14 C 21.25 14 22.314774 13.495244 22.998047 12.726562 C 23.681319 11.957882 24 10.972222 24 10 C 24 9.0277779 23.681319 8.0421194 22.998047 7.2734375 C 22.314774 6.5047556 21.25 6 20 6 C 19.24732 6 18.575511 6.1982713 18 6.5117188 L 18 2.8671875 z M 16 5.1328125 L 16 10 L 16 26.867188 L 2 25.117188 L 2 6.8828125 L 16 5.1328125 z M 20 8 C 20.749999 8 21.185226 8.2452444 21.501953 8.6015625 C 21.81868 8.9578806 22 9.4722221 22 10 C 22 10.527778 21.81868 11.042119 21.501953 11.398438 C 21.185226 11.754755 20.749999 12 20 12 C 19.250001 12 18.814774 11.754756 18.498047 11.398438 C 18.18132 11.042118 18 10.527778 18 10 C 18 9.4722221 18.18132 8.9578806 18.498047 8.6015625 C 18.814774 8.2452444 19.250001 8 20 8 z M 28 9 C 27.083334 9 26.268559 9.3797556 25.751953 9.9609375 C 25.235347 10.542119 25 11.277778 25 12 C 25 12.722222 25.235347 13.457881 25.751953 14.039062 C 26.268559 14.620245 27.083334 15 28 15 C 28.916666 15 29.731441 14.620244 30.248047 14.039062 C 30.764653 13.457882 31 12.722222 31 12 C 31 11.277778 30.764653 10.542119 30.248047 9.9609375 C 29.731441 9.3797556 28.916666 9 28 9 z M 28 11 C 28.416666 11 28.601893 11.120244 28.751953 11.289062 C 28.902014 11.457882 29 11.722222 29 12 C 29 12.277778 28.90201 12.542119 28.751953 12.710938 C 28.601893 12.879755 28.416666 13 28 13 C 27.583334 13 27.398107 12.879756 27.248047 12.710938 C 27.097986 12.542118 27 12.277778 27 12 C 27 11.722222 27.097986 11.457881 27.248047 11.289062 C 27.398107 11.120245 27.583334 11 28 11 z M 5 12 L 5 14 L 8 14 L 8 21 L 10 21 L 10 14 L 13 14 L 13 12 L 5 12 z M 18 18 L 24 18 L 24 22 C 24 23.668484 22.668484 25 21 25 L 19 25 C 18.645804 25 18.312511 24.933045 18 24.822266 L 18 18 z M 26 19 L 30 19 L 30 21.630859 C 30 22.400007 29.400007 23 28.630859 23 L 27 23 C 26.43497 23 26 22.56503 26 22 L 26 19 z"/></svg>